<?xml version="1.0" encoding="UTF-8" standalone="no"?>
<!-- Created with Inkscape (http://www.inkscape.org/) -->

<svg
   xmlns:dc="http://purl.org/dc/elements/1.1/"
   xmlns:cc="http://creativecommons.org/ns#"
   xmlns:rdf="http://www.w3.org/1999/02/22-rdf-syntax-ns#"
   xmlns:svg="http://www.w3.org/2000/svg"
   xmlns="http://www.w3.org/2000/svg"
   xmlns:sodipodi="http://sodipodi.sourceforge.net/DTD/sodipodi-0.dtd"
   xmlns:inkscape="http://www.inkscape.org/namespaces/inkscape"
   id="svg2"
   version="1.1"
   inkscape:version="0.92.3 (2405546, 2018-03-11)"
   xml:space="preserve"
   width="2770.3452"
   height="2986.0479"
   viewBox="0 0 2770.3455 2986.0477"
   sodipodi:docname="sesame.svg"
   inkscape:export-filename="/home/eric/data/WORK/PROJECT/TOOL/SESAME/LOGO/sesame.png"
   inkscape:export-xdpi="90"
   inkscape:export-ydpi="90"
   style="enable-background:new"><metadata
     id="metadata8"><rdf:RDF><cc:Work
         rdf:about=""><dc:format>image/svg+xml</dc:format><dc:type
           rdf:resource="http://purl.org/dc/dcmitype/StillImage" /><dc:title></dc:title></cc:Work></rdf:RDF></metadata><defs
     id="defs6" /><sodipodi:namedview
     pagecolor="#ffffff"
     bordercolor="#666666"
     borderopacity="1"
     objecttolerance="10"
     gridtolerance="10"
     guidetolerance="10"
     inkscape:pageopacity="0"
     inkscape:pageshadow="2"
     inkscape:window-width="1920"
     inkscape:window-height="1056"
     id="namedview4"
     showgrid="true"
     inkscape:zoom="0.22250293"
     inkscape:cx="1271.7711"
     inkscape:cy="1541.6948"
     inkscape:window-x="0"
     inkscape:window-y="0"
     inkscape:window-maximized="1"
     inkscape:current-layer="layer1"
     fit-margin-top="80"
     fit-margin-left="80"
     fit-margin-right="80"
     fit-margin-bottom="80"
     showguides="false"><inkscape:grid
       type="xygrid"
       id="grid3748"
       spacingx="15.000001"
       spacingy="30"
       originx="1966.3411"
       originy="764.1372" /></sodipodi:namedview><g
     inkscape:groupmode="layer"
     id="layer1"
     inkscape:label="title"
     style="display:inline"
     transform="translate(1416.7823,667.38582)"><text
   transform="scale(0.94703571,1.0559264)"
   style="font-variant:normal;font-weight:normal;font-stretch:normal;font-size:32.02833939px;line-height:0%;font-family:Times;-inkscape-font-specification:Times-Roman;writing-mode:lr-tb;display:inline;fill:#f85829;fill-opacity:1;fill-rule:nonzero;stroke:none;stroke-width:2.66902852;"
   id="text24"
   x="-1440.5828"
   y="2120.0928"><tspan
     x="-1440.5828"
     sodipodi:role="line"
     id="tspan28"
     y="2120.0928"
     style="font-style:normal;font-variant:normal;font-weight:normal;font-stretch:normal;font-size:569.3927002px;line-height:1.25;font-family:Orbitron;-inkscape-font-specification:Orbitron;fill:#f85829;fill-opacity:1;stroke-width:2.66902852;"><tspan
       style="fill:#f85829;fill-opacity:1;stroke-width:2.66902852;"
       id="tspan946">SESAME</tspan></tspan></text>
















<g
   id="g882"><path
     style="fill:#3e485d;fill-opacity:1;stroke-width:4.35066319"
     id="path841"
     d="M 921.54222,305.80874 C 897.13777,199.89724 855.84059,100.15492 798.34713,8.3150884 L 881.1459,-129.78444 624.55867,-386.3716 486.45893,-303.57304 c -91.83984,-57.49334 -191.58201,-98.79063 -297.4934,-123.19515 l -39.07122,-160.61763 h -363.00845 l -39.07082,160.61763 c -105.91179,24.40452 -205.65397,65.70181 -297.4936,123.19515 L -687.7781,-386.3716 -944.36532,-129.78444 -861.56656,8.3150884 C -919.06002,100.15492 -960.3576,199.89724 -984.76206,305.80874 l -160.61754,39.07101 v 363.00844 l 160.61754,39.07101 c 24.40446,105.91148 65.70204,205.65382 123.1955,297.4936 l -82.79876,138.0996 256.58722,256.587 138.09954,-82.7983 c 91.83963,57.4932 191.58181,98.7906 297.4936,123.1951 l 39.07082,160.6177 h 363.00845 l 39.07122,-160.6177 c 105.91139,-24.4045 205.65356,-65.7019 297.4934,-123.1951 l 138.09974,82.7983 256.58723,-256.587 -82.79877,-138.0996 C 855.84059,952.61302 897.13777,852.87068 921.54222,746.9592 L 1082.1602,707.88819 V 344.87975 Z M -31.609714,1244.2434 c -395.825496,0 -717.859626,-322.03404 -717.859626,-717.85943 0,-395.82541 322.03413,-717.85944 717.859626,-717.85944 395.825494,0 717.859224,322.03403 717.859224,717.85944 0,395.82539 -322.03373,717.85943 -717.859224,717.85943 z m 0,0"
     inkscape:connector-curvature="0" /><g
     style="fill:#f85829;fill-opacity:1"
     transform="matrix(2.0280096,0,0,2.0280096,-550.78017,-25.234579)"
     id="g918"><g
       style="fill:#f85829;fill-opacity:1"
       id="g861">
	<g
   style="fill:#f85829;fill-opacity:1"
   id="g859">
		<path
   style="fill:#f85829;fill-opacity:1"
   inkscape:connector-curvature="0"
   d="m 437.333,192 h -32 V 149.333 C 405.333,66.99 338.344,0 256,0 173.656,0 106.667,66.99 106.667,149.333 V 192 h -32 C 68.771,192 64,196.771 64,202.667 V 469.334 C 64,492.865 83.135,512 106.667,512 H 405.334 C 428.865,512 448,492.865 448,469.333 V 202.667 C 448,196.771 443.229,192 437.333,192 Z M 287.938,414.823 c 0.333,3.01 -0.635,6.031 -2.656,8.292 -2.021,2.26 -4.917,3.552 -7.948,3.552 h -42.667 c -3.031,0 -5.927,-1.292 -7.948,-3.552 -2.021,-2.26 -2.99,-5.281 -2.656,-8.292 l 6.729,-60.51 C 219.865,346.365 213.334,333.792 213.334,320 c 0,-23.531 19.135,-42.667 42.667,-42.667 23.532,0 42.667,19.135 42.667,42.667 0,13.792 -6.531,26.365 -17.458,34.313 z M 341.333,192 H 170.667 V 149.333 C 170.667,102.281 208.948,64 256,64 c 47.052,0 85.333,38.281 85.333,85.333 V 192 Z"
   id="path857" />
	</g>
</g><g
       style="fill:#f85829;fill-opacity:1"
       id="g863">
</g><g
       style="fill:#f85829;fill-opacity:1"
       id="g865">
</g><g
       style="fill:#f85829;fill-opacity:1"
       id="g867">
</g><g
       style="fill:#f85829;fill-opacity:1"
       id="g869">
</g><g
       style="fill:#f85829;fill-opacity:1"
       id="g871">
</g><g
       style="fill:#f85829;fill-opacity:1"
       id="g873">
</g><g
       style="fill:#f85829;fill-opacity:1"
       id="g875">
</g><g
       style="fill:#f85829;fill-opacity:1"
       id="g877">
</g><g
       style="fill:#f85829;fill-opacity:1"
       id="g879">
</g><g
       style="fill:#f85829;fill-opacity:1"
       id="g881">
</g><g
       style="fill:#f85829;fill-opacity:1"
       id="g883">
</g><g
       style="fill:#f85829;fill-opacity:1"
       id="g885">
</g><g
       style="fill:#f85829;fill-opacity:1"
       id="g887">
</g><g
       style="fill:#f85829;fill-opacity:1"
       id="g889">
</g><g
       style="fill:#f85829;fill-opacity:1"
       id="g891">
</g></g></g><flowRoot
   xml:space="preserve"
   id="flowRoot948"
   style="font-style:normal;font-weight:normal;font-size:40px;line-height:1.25;font-family:sans-serif;letter-spacing:-34.54000092px;word-spacing:0px;fill:#000000;fill-opacity:1;stroke:none"
   transform="matrix(2.0280096,0,0,2.0280096,-1854.7723,-690.78327)"><flowRegion
     id="flowRegion950"><rect
       id="rect952"
       width="1575.0001"
       height="1297.0547"
       x="-134.70581"
       y="-120.42929" /></flowRegion><flowPara
     id="flowPara954" /></flowRoot></g></svg>